<?xml version="1.0" encoding="UTF-8" standalone="no"?>
<svg
   xmlns:dc="http://purl.org/dc/elements/1.1/"
   xmlns:cc="http://creativecommons.org/ns#"
   xmlns:rdf="http://www.w3.org/1999/02/22-rdf-syntax-ns#"
   xmlns:svg="http://www.w3.org/2000/svg"
   xmlns="http://www.w3.org/2000/svg"
   xmlns:sodipodi="http://sodipodi.sourceforge.net/DTD/sodipodi-0.dtd"
   xmlns:inkscape="http://www.inkscape.org/namespaces/inkscape"
   inkscape:version="1.0 (4035a4f, 2020-05-01)"
   sodipodi:docname="wifiweak.svg"
   id="svg20"
   version="1.1"
   viewBox="0 0 20 14"
   height="14px"
   width="20px">
  <metadata
     id="metadata24">
    <rdf:RDF>
      <cc:Work
         rdf:about="">
        <dc:format>image/svg+xml</dc:format>
        <dc:type
           rdf:resource="http://purl.org/dc/dcmitype/StillImage" />
        <dc:title>wifi [#1020]</dc:title>
      </cc:Work>
    </rdf:RDF>
  </metadata>
  <sodipodi:namedview
     inkscape:current-layer="svg20"
     inkscape:window-maximized="0"
     inkscape:window-y="1590"
     inkscape:window-x="737"
     inkscape:cy="11.493603"
     inkscape:cx="1.1016029"
     inkscape:zoom="12.307768"
     showgrid="false"
     id="namedview22"
     inkscape:window-height="784"
     inkscape:window-width="1096"
     inkscape:pageshadow="2"
     inkscape:pageopacity="0"
     guidetolerance="10"
     gridtolerance="10"
     objecttolerance="10"
     borderopacity="1"
     bordercolor="#666666"
     pagecolor="#ffffff" />
  <!-- Generator: Sketch 3.8.1 (29687) - http://www.bohemiancoding.com/sketch -->
  <title
     id="title10">wifi [#1020]</title>
  <desc
     id="desc12">Created with Sketch.</desc>
  <defs
     id="defs14" />
  <g
     fill-rule="evenodd"
     fill="none"
     stroke-width="1"
     stroke="none"
     id="Page-1">
    <g
       fill="#000000"
       transform="translate(-380.000000, -3642.000000)"
       id="Dribbble-Light-Preview">
      <g
         transform="translate(56.000000, 160.000000)"
         id="icons">
        <path
           id="wifi-[#1020]"
           d="M332.57114,3494.586 L333.999495,3496 L335.42785,3494.586 C334.638921,3493.805 333.360069,3493.805 332.57114,3494.586 M329.71443,3491.758 L331.142785,3493.172 C332.717612,3491.612 335.281378,3491.612 336.857215,3493.172 L338.28557,3491.758 C335.918784,3489.414 332.081216,3489.414 329.71443,3491.758 M324,3486.101 L325.428355,3487.515 C330.154856,3482.836 337.845144,3482.836 342.570635,3487.515 L344,3486.101 C338.476489,3480.633 329.522501,3480.633 324,3486.101 M341.14228,3488.929 L339.713925,3490.343 C336.563261,3487.224 331.436739,3487.224 328.285065,3490.343 L326.85671,3488.929 C330.801354,3485.024 337.197636,3485.024 341.14228,3488.929" />
      </g>
    </g>
  </g>
  <path
     id="path38"
     d="M 0.73902339,4.7529557 0.09588291,4.1060209 0.25343254,3.9312325 C 0.49567245,3.6624872 1.5419482,2.8366762 2.2192692,2.3796247 3.6444726,1.4179074 5.6562722,0.61246021 7.5006784,0.26515166 c 1.3615799,-0.25639058 3.6339086,-0.25639058 4.9954886,0 1.86202,0.35062525 3.847963,1.14708414 5.315956,2.13195414 0.679374,0.4557892 1.671665,1.2436384 1.931895,1.5338659 L 19.902172,4.1073571 19.242454,4.7670742 18.582738,5.4267914 18.109307,5.0174412 C 16.592396,3.7058505 14.92592,2.8274285 13.069601,2.3609449 11.968793,2.0843173 11.172038,1.9874116 9.9984228,1.9874116 c -3.0031811,0 -5.6869932,0.981773 -7.9780867,2.918487 -0.3214103,0.2716955 -0.5964851,0.4939919 -0.6112773,0.4939919 -0.014792,0 -0.3163081,-0.2911207 -0.67003541,-0.6469348 z"
     style="fill:#a0a0a0;stroke:none;stroke-width:0.0812495" />
  <path
     id="path58"
     d="M 3.5778064,7.58794 2.9297166,6.9322571 3.3357793,6.5612153 C 4.5689738,5.4343777 6.5517518,4.4873005 8.3328081,4.174376 c 0.783188,-0.1376029 2.5480419,-0.1376029 3.3312299,0 1.78187,0.3130675 3.766781,1.261414 4.997028,2.38747 L 17.067129,6.9335186 16.407763,7.5973258 15.748396,8.261133 15.18902,7.808984 C 12.215048,5.405093 7.9075375,5.3648385 4.9408973,7.7132132 4.5723684,8.0049385 4.2607313,8.2436229 4.2483705,8.2436229 c -0.012361,0 -0.3141146,-0.2950573 -0.6705641,-0.6556829 z"
     style="fill:#a0a0a0;stroke:none;stroke-width:0.0812495" />
  <path
     id="path78"
     d="M 6.4710053,10.403706 5.7996319,9.7288271 6.1547089,9.4378682 c 2.2394334,-1.8350474 5.5628541,-1.827682 7.7047761,0.017075 l 0.350119,0.3015442 -0.682391,0.6572296 -0.682392,0.657229 -0.298123,-0.236118 C 11.717225,10.177874 10.433622,9.8482679 9.3770356,10.020917 8.716748,10.12881 7.9108026,10.469983 7.4453248,10.838648 l -0.3029461,0.239938 z"
     style="fill:#a0a0a0;stroke:none;stroke-width:0.0812495" />
  <path
     id="path98"
     d="M 9.3187505,13.251473 8.6425697,12.571761 8.873624,12.410732 c 0.6630366,-0.462091 1.676069,-0.458885 2.256438,0.0071 l 0.214947,0.172599 -0.675039,0.670357 -0.6750386,0.670356 z"
     style="fill:#a0a0a0;stroke:none;stroke-width:0.0812495" />
</svg>
